<?xml version="1.0" encoding="utf-8"?>
<!-- Generator: Adobe Illustrator 21.0.0, SVG Export Plug-In . SVG Version: 6.00 Build 0)  -->
<svg version="1.1" id="Layer_1" xmlns="http://www.w3.org/2000/svg" xmlns:xlink="http://www.w3.org/1999/xlink" x="0px" y="0px"
	 width="150px" height="150px" viewBox="0 0 150 150" style="enable-background:new 0 0 150 150;" xml:space="preserve">
<style type="text/css">
	.st0{fill:#FFFFFF;}
</style>
<g>
	<polygon class="st0" points="146.9,3.6 146.9,3.7 147,3.7 	"/>
	<polygon class="st0" points="147,3.8 146.9,3.7 118.7,11.9 31.7,98.9 24.6,91.9 20,96.4 54.2,130.6 58.8,126 51.8,119.1 
		138.8,32.1 	"/>
	
		<rect x="2.8" y="122" transform="matrix(0.7071 -0.7071 0.7071 0.7071 -85.1288 52.8909)" class="st0" width="36.9" height="14.4"/>
</g>
<g>
	<polygon class="st0" points="3.2,3.7 3.2,3.7 3.2,3.6 	"/>
	<polygon class="st0" points="125.5,91.9 118.5,98.9 31.4,11.9 3.2,3.7 3.1,3.8 11.3,32.1 98.3,119.1 91.3,126 95.9,130.6 
		130.1,96.4 	"/>
	
		<rect x="121.6" y="110.8" transform="matrix(0.7071 -0.7071 0.7071 0.7071 -53.6206 128.9585)" class="st0" width="14.4" height="36.9"/>
</g>
</svg>
