<svg xmlns="http://www.w3.org/2000/svg" height="45px" width="185px" viewBox="0 0 1230.15 308.61"><defs><style>.a{isolation:isolate;}.b{fill:#bf1d4b;}.c{fill:#fff;}</style></defs><title>Ресурс 1</title><g class="a"><path class="b" d="M97.51,1l58.61,74H356.25L371.51,1Zm154,194.18L314.36,274l25.5-123h-79.2Z"/></g><g class="a"><path class="c" d="M0,308H78.6l17-82.39L33.13,147ZM64,1l-23,111.17L196.29,308H308Z"/></g><g class="a"><path class="c" d="M552.28,1.94H527.1a4.48,4.48,0,0,0-2.65.88A5.89,5.89,0,0,0,522.5,5.3l-15,70.77q-7.42-18-14.8-35.69T478.06,4.68a4.37,4.37,0,0,0-1.9-2.12,5.24,5.24,0,0,0-2.43-.62H444.84a4.33,4.33,0,0,0-3.14,1.15,5.33,5.33,0,0,0-1.55,2.74L413.92,129.34a3.43,3.43,0,0,0,.35,2.69,3,3,0,0,0,2.74,1.1h25.09a4.86,4.86,0,0,0,3.36-1,5.49,5.49,0,0,0,1.5-2.92L463,53.36q7.69,19.35,15.2,38.43t15.11,38.43a8,8,0,0,0,1.37,2.12,2.5,2.5,0,0,0,1.9.8H524.8q3.89,0,4.68-3.45L555.81,5.83A2.81,2.81,0,0,0,555.19,3,4,4,0,0,0,552.28,1.94ZM686.74,15.28A52.14,52.14,0,0,0,669.47,4.06,58.66,58.66,0,0,0,647.25,0,88.21,88.21,0,0,0,616,5.26a77.61,77.61,0,0,0-41.57,35.83,95.84,95.84,0,0,0-9.76,26.33,35.13,35.13,0,0,0-.8,7.38v7a55.56,55.56,0,0,0,4,21.16A50.3,50.3,0,0,0,579,119.89a51,51,0,0,0,17.27,11.18,59.57,59.57,0,0,0,22.26,4A98.76,98.76,0,0,0,643,132.22a84.07,84.07,0,0,0,20.54-8.08,71.58,71.58,0,0,0,16.43-12.59A73.84,73.84,0,0,0,692,95.06a81,81,0,0,0,7.42-19.57,93.59,93.59,0,0,0,2.52-22,56.14,56.14,0,0,0-4-21.29A49.91,49.91,0,0,0,686.74,15.28ZM665.58,70.72a45.24,45.24,0,0,1-11.4,19.08,47.94,47.94,0,0,1-8.75,6.94,42.27,42.27,0,0,1-10,4.51,36.88,36.88,0,0,1-10.73,1.59,33.33,33.33,0,0,1-12.5-2,20,20,0,0,1-8-5.7,21.81,21.81,0,0,1-4.33-8.61,42.9,42.9,0,0,1-1.28-10.78,38.14,38.14,0,0,1,.88-8.13,45.22,45.22,0,0,1,5.43-13.65,46.81,46.81,0,0,1,9.28-11.18,42.76,42.76,0,0,1,12.15-7.51,36.85,36.85,0,0,1,14-2.74q12.54,0,19.7,6.85t7.16,20.1A38.91,38.91,0,0,1,665.58,70.72Zm166-42.5a32.69,32.69,0,0,0-6.41-13.65,33,33,0,0,0-11.93-9.23,38,38,0,0,0-16.34-3.4H739.84A4.43,4.43,0,0,0,736.71,3a5.72,5.72,0,0,0-1.63,3L708.92,129.34a3,3,0,0,0,.44,2.87,3.49,3.49,0,0,0,2.65.93h26.24a4.5,4.5,0,0,0,4.86-3.8l8.48-39.85h14.31l12.81,40.38a2.94,2.94,0,0,0,1.06,2.39,3.87,3.87,0,0,0,2.56.88h30.3q3.36,0,4.06-2.92a5.3,5.3,0,0,0-.35-2.92q-.62-1.68-1-2.92L801.69,81.64a61.16,61.16,0,0,0,10.25-6.58,57.41,57.41,0,0,0,8.75-8.57,58.4,58.4,0,0,0,6.71-10.16,43.84,43.84,0,0,0,4.06-11.44A39.26,39.26,0,0,0,831.59,28.23Zm-35.65,17a21.36,21.36,0,0,1-5.7,10.38,20.55,20.55,0,0,1-4.9,3.62A16.3,16.3,0,0,1,779.42,61q-1.59.18-2.83.27t-2.83.09H757.51L764.4,29H776.6q2.56,0,4.73.13l4.55.31A11.92,11.92,0,0,1,791,31.36a11.53,11.53,0,0,1,3.45,3.71,13.63,13.63,0,0,1,1.68,4.86A15.27,15.27,0,0,1,795.94,45.24ZM992.34,3a3.52,3.52,0,0,0-2.65-1.1H959.48a5.63,5.63,0,0,0-2.87.8,6.43,6.43,0,0,0-2.34,2.56L913,85.52,906,5.3q-.44-3.36-3.53-3.36H871.92a4.82,4.82,0,0,0-3.27,1.15,5.53,5.53,0,0,0-1.77,2.74L828,129.26q-.8,3.89,3,3.89h25q4.15,0,5.12-3.89l22.18-68.12,5.3,68.56a3.17,3.17,0,0,0,.84,2.16,2.57,2.57,0,0,0,2,1.19h23.24a2.34,2.34,0,0,0,1.15-.35,8,8,0,0,0,1.24-.88,9.83,9.83,0,0,0,1.1-1.1,3.94,3.94,0,0,0,.66-1L953.29,61l-6.8,68.29q-.71,3.89,3.45,3.89h25q3.8,0,4.59-3.45l.09-.44q3.45-31.1,6.8-61.71t6.8-61.71A3.32,3.32,0,0,0,992.34,3Zm106.28,1.46a3.2,3.2,0,0,0-1.15-1.72,3.65,3.65,0,0,0-2.47-.84h-22.62a5.56,5.56,0,0,0-3.18,1.19,7.92,7.92,0,0,0-2.3,2.25L992.52,129.61a3.72,3.72,0,0,0-.53,1.15,1.54,1.54,0,0,0,.66,1.81,4.37,4.37,0,0,0,2.34.57h26.06a5,5,0,0,0,3-.84,8,8,0,0,0,2.16-2.43q2.65-4.51,5.35-9t5.35-9h46.91q.71,4.51,1.46,9t1.46,9a3.72,3.72,0,0,0,1.24,2.52,4.89,4.89,0,0,0,3,.75h25.36q3.89,0,4.42-2.65a5,5,0,0,0,0-1.33Zm-45.85,79.07q2.65-4.51,5.43-9.67t5.65-10.47q2.87-5.3,5.65-10.51T1075,43.2l4.95,40.38Zm176.74,19.35a3.17,3.17,0,0,0-2.52-1.06h-48.59l20.41-96.12a2.73,2.73,0,0,0-.66-2.83,3.64,3.64,0,0,0-2.61-1.06h-26.15A4.53,4.53,0,0,0,1166.26,3a5.09,5.09,0,0,0-1.63,2.74l-26.24,123.51q-.8,3.89,3.09,3.89h78.9a4.12,4.12,0,0,0,3.09-1.28,6,6,0,0,0,1.59-2.78l4.95-23.24A3.11,3.11,0,0,0,1229.52,102.93Z"/></g><g class="a"><path class="b" d="M495,248a4,4,0,0,0-2.39-.84H469a4.6,4.6,0,0,0-3.18,1.1,5,5,0,0,0-1.59,2.78l-4.86,23.15q-3.71.71-7.38,1.15a56.61,56.61,0,0,1-6.76.44,29.88,29.88,0,0,1-11.22-2,23.78,23.78,0,0,1-8.39-5.57,24.09,24.09,0,0,1-5.26-8.48,30.48,30.48,0,0,1-1.81-10.65A40.62,40.62,0,0,1,420.06,238a45,45,0,0,1,4.33-10.25,46.39,46.39,0,0,1,6.67-8.88,44,44,0,0,1,8.48-6.94,42.35,42.35,0,0,1,9.81-4.51A35.53,35.53,0,0,1,460,205.77a30.72,30.72,0,0,1,10.65,1.77,27.58,27.58,0,0,1,8.53,4.95,3.63,3.63,0,0,0,2.21.8,4.67,4.67,0,0,0,3.45-1.94l18.73-20.67a4.51,4.51,0,0,0,1.06-2.65,2.58,2.58,0,0,0-.57-1.68A11,11,0,0,0,502.8,185a53.8,53.8,0,0,0-15.9-8.53,60.09,60.09,0,0,0-19.35-3,86.5,86.5,0,0,0-41.35,10.43,82.85,82.85,0,0,0-17,12.24,77.25,77.25,0,0,0-13.3,16.3,80.35,80.35,0,0,0-8.66,19.88,82.91,82.91,0,0,0-3.09,23,55.56,55.56,0,0,0,4,21.16,50.3,50.3,0,0,0,11.18,16.92,51,51,0,0,0,17.27,11.18,59.57,59.57,0,0,0,22.26,4,100.34,100.34,0,0,0,11.13-.66,103.79,103.79,0,0,0,11.84-2,99.85,99.85,0,0,0,11.53-3.4,62.46,62.46,0,0,0,10.29-4.77,6,6,0,0,0,3.36-3.89l9.1-42.76a1.42,1.42,0,0,1,0-.35,1.47,1.47,0,0,0,0-.35A2.74,2.74,0,0,0,495,248Zm109.82-70a3.2,3.2,0,0,0-1.15-1.72,3.65,3.65,0,0,0-2.47-.84H578.61a5.56,5.56,0,0,0-3.18,1.19,7.92,7.92,0,0,0-2.3,2.25L498.74,303.13a3.72,3.72,0,0,0-.53,1.15,1.54,1.54,0,0,0,.66,1.81,4.37,4.37,0,0,0,2.34.57h26.06a5,5,0,0,0,3-.84,8,8,0,0,0,2.16-2.43q2.65-4.51,5.35-9t5.35-9H590q.71,4.51,1.46,9t1.46,9a3.72,3.72,0,0,0,1.24,2.52,4.89,4.89,0,0,0,3,.75h25.36q3.89,0,4.42-2.65a5,5,0,0,0,0-1.33ZM559,257.1q2.65-4.51,5.43-9.67T570.08,237q2.87-5.3,5.65-10.51t5.43-9.72l4.95,40.38Zm241.9-81.64H770.68a5.63,5.63,0,0,0-2.87.8,6.43,6.43,0,0,0-2.34,2.56L724.21,259l-7-80.22q-.44-3.36-3.53-3.36H683.12a4.82,4.82,0,0,0-3.27,1.15,5.53,5.53,0,0,0-1.77,2.74L639.21,302.78q-.8,3.89,3,3.89h25q4.15,0,5.12-3.89l22.18-68.12,5.3,68.56a3.17,3.17,0,0,0,.84,2.16,2.57,2.57,0,0,0,2,1.19h23.24a2.34,2.34,0,0,0,1.15-.35,8,8,0,0,0,1.24-.88,9.82,9.82,0,0,0,1.1-1.1,3.94,3.94,0,0,0,.66-1l34.46-68.74-6.8,68.29q-.71,3.89,3.45,3.89h25q3.8,0,4.59-3.45l.09-.44q3.45-31.1,6.8-61.71t6.8-61.71a3.32,3.32,0,0,0-.88-2.78A3.52,3.52,0,0,0,800.89,175.47Zm134.78,1.15a3.22,3.22,0,0,0-2.78-1.15H845.16a4.47,4.47,0,0,0-3.09,1.1,5.57,5.57,0,0,0-1.68,3L814.23,302.87a3,3,0,0,0,.44,2.87,3.49,3.49,0,0,0,2.65.93h89.41a5.21,5.21,0,0,0,3.31-1.15,4.81,4.81,0,0,0,1.81-2.92l4.77-22.26q.8-4.06-3.09-4.06H854.17l4.77-22.53H903.2a4.21,4.21,0,0,0,3-1.15,4.74,4.74,0,0,0,1.46-2.39l4.06-19.08q.44-1.86-.49-2.65a3.89,3.89,0,0,0-2.61-.8H864.51l4.59-21.82h57.25a4.62,4.62,0,0,0,3.4-1.37,5.43,5.43,0,0,0,1.63-2.87l4.68-21.91A3.69,3.69,0,0,0,935.67,176.61Z"/></g></svg>