<?xml version="1.0" encoding="utf-8"?>
<!-- Generator: Adobe Illustrator 21.0.0, SVG Export Plug-In . SVG Version: 6.00 Build 0)  -->
<svg version="1.1" xmlns="http://www.w3.org/2000/svg" xmlns:xlink="http://www.w3.org/1999/xlink" x="0px" y="0px"
	 viewBox="0 0 300 300" style="enable-background:new 0 0 300 300;" xml:space="preserve">
<style type="text/css">
	.st0{display:none;}
	.st1{display:inline;fill:#131313;}
	.st2{fill:#FFFFFF;}
</style>
<g id="Layer_1" class="st0">
	<rect class="st1" width="300" height="300"/>
</g>
<g id="Layer_2">
	<g>
		<g>
			<path class="st2" d="M150,6.5C70.7,6.5,6.5,70.7,6.5,150c0,79.3,64.2,143.5,143.5,143.5c79.3,0,143.5-64.2,143.5-143.5
				C293.5,70.7,229.3,6.5,150,6.5z M150,262.8c-62.2,0-112.8-50.6-112.8-112.7C37.2,87.8,87.8,37.2,150,37.2
				c62.2,0,112.7,50.6,112.7,112.8C262.8,212.2,212.2,262.8,150,262.8z"/>
		</g>
	</g>
	<path class="st2" d="M228.4,233.7V66.3h-43.7v92.1l-68.1-92.1H71.9v167.4h43.4v-96.9l71.2,96.9H228.4z"/>
</g>
<g id="Layer_3">
</g>
</svg>
