<svg x="0" y="0" version="1.1" xmlns="http://www.w3.org/2000/svg" xmlns:xlink="http://www.w3.org/1999/xlink" viewBox="0 0 24 24" width="48" height="48" style="fill: rgb(59, 89, 152);"><g fill="none" stroke="none" stroke-width="1" stroke-linecap="butt" stroke-linejoin="miter" stroke-miterlimit="10" stroke-dasharray="" stroke-dashoffset="0" font-family="sans-serif" font-weight="normal" font-size="12" text-anchor="start" mix-blend-mode="normal"><g><g><path d="M0,24l0,-24l24,0l0,24z" fill="none"/><path d="M2.4,24c-1.32548,0 -2.4,-1.07452 -2.4,-2.4l0,-19.2c0,-1.32548 1.07452,-2.4 2.4,-2.4l19.2,0c1.32548,0 2.4,1.07452 2.4,2.4l0,19.2c0,1.32548 -1.07452,2.4 -2.4,2.4z" fill="#ffffff"/><g fill="#3b5998"><path d="M21.6,0l-19.2,0c-1.32,0 -2.4,1.08 -2.4,2.4l0,19.2c0,1.32 1.08,2.4 2.4,2.4l19.2,0c1.32,0 2.4,-1.08 2.4,-2.4l0,-19.2c0,-1.32 -1.08,-2.4 -2.4,-2.4z M19.68,6.48l-1.68,0c-1.08,0 -1.2,0.36 -1.2,1.2l0,1.56l2.52,0l-0.12,2.76l-2.28,0l0,8.4l-3.84,0l0,-8.4l-1.44,0l0,-2.88l1.44,0l0,-1.8c0,-2.4 0.96,-3.72 3.72,-3.72l2.88,0z"/></g></g></g></g></svg>