<svg x="0" y="0" version="1.1" xmlns="http://www.w3.org/2000/svg" xmlns:xlink="http://www.w3.org/1999/xlink" viewBox="0 0 24 24" width="48" height="48" style="fill: rgb(208, 66, 42);"><g fill="none" stroke="none" stroke-width="1" stroke-linecap="butt" stroke-linejoin="miter" stroke-miterlimit="10" stroke-dasharray="" stroke-dashoffset="0" font-family="sans-serif" font-weight="normal" font-size="12" text-anchor="start" mix-blend-mode="normal"><g><g><path d="M0,24l0,-24l24,0l0,24z" fill="none"/><path d="M2.4,24c-1.32548,0 -2.4,-1.07452 -2.4,-2.4l0,-19.2c0,-1.32548 1.07452,-2.4 2.4,-2.4l19.2,0c1.32548,0 2.4,1.07452 2.4,2.4l0,19.2c0,1.32548 -1.07452,2.4 -2.4,2.4z" fill="#ffffff"/><g fill="#d0422a"><path d="M2.1875,0c-1.2,0 -2.1875,0.9875 -2.1875,2.1875l0,19.625c0,1.2 0.9875,2.1875 2.1875,2.1875l19.625,0c1.2,0 2.1875,-0.9875 2.1875,-2.1875l0,-19.625c0,-1.2 -0.9875,-2.1875 -2.1875,-2.1875z M9.1875,3.90625l4.40625,0l-1.40625,0.6875l-1.1875,0c0.5,0.5 1.5,1.30625 1.5,2.90625c0,1.6 -0.9125,2.3 -1.8125,3c-0.3,0.3 -0.59375,0.6 -0.59375,1c0,0.5 0.29375,0.70625 0.59375,0.90625l0.8125,0.59375c0.9,0.8 1.8125,1.5 1.8125,3c0,2 -2.025,4 -5.625,4c-3.1,0 -4.59375,-1.5 -4.59375,-3c0,-0.8 0.41875,-1.79375 1.71875,-2.59375c1.3,-0.8 3.09375,-0.9 4.09375,-1c-0.3,-0.4 -0.59375,-0.80625 -0.59375,-1.40625c0,-0.4 0.0875,-0.6125 0.1875,-0.8125l-0.6875,0c-2.5,0.1 -3.8125,-1.58125 -3.8125,-3.28125c0,-1 0.50625,-2.1125 1.40625,-2.8125c1.2,-1 2.68125,-1.1875 3.78125,-1.1875z M7.90625,4.59375c-0.6,0 -1.2,0.31875 -1.5,0.71875c-0.4,0.5 -0.5,1.09375 -0.5,1.59375c0,1.4 0.7875,3.78125 2.6875,3.78125c0.5,0 1.1,-0.29375 1.5,-0.59375c0.5,-0.5 0.5,-1.2 0.5,-1.5c0,-1.6 -0.8875,-4 -2.6875,-4z M17,8l2,0l0,3l3,0l0,2l-3,0l0,3l-2,0l0,-3l-3,0l0,-2l3,0z M8.90625,14.09375c-0.2,0 -1.4125,0.0125 -2.3125,0.3125c-0.5,0.2 -1.78125,0.6875 -1.78125,2.1875c0,1.5 1.48125,2.59375 3.78125,2.59375c2.1,0 3.21875,-0.98125 3.21875,-2.28125c0,-1.1 -0.7125,-1.7125 -2.3125,-2.8125z"/></g></g></g></g></svg>