<svg x="0" y="0" version="1.1" xmlns="http://www.w3.org/2000/svg" xmlns:xlink="http://www.w3.org/1999/xlink" viewBox="0 0 50 50" width="100" height="100" style="fill: rgb(40, 40, 40);"><g fill="none" stroke="none" stroke-width="1" stroke-linecap="butt" stroke-linejoin="miter" stroke-miterlimit="10" stroke-dasharray="" stroke-dashoffset="0" font-family="none" font-weight="normal" font-size="12" text-anchor="start" mix-blend-mode="normal"><g><g><path d="M0,50l0,-50l50,0l0,50z" fill="none" font-family="sans-serif"/><path d="M25,50c-13.80712,0 -25,-11.19288 -25,-25l0,0c0,-13.80712 11.19288,-25 25,-25l0,0c13.80712,0 25,11.19288 25,25l0,0c0,13.80712 -11.19288,25 -25,25z" fill="#ffffff" font-family="sans-serif"/><g fill="#282828" font-family="Bitstream Vera Sans"><path d="M8.9,-1.45c-5.75,0 -10.35,4.6 -10.35,10.35l0,16.45937l0.50313,0.21563l8.48125,3.95312c1.6859,-2.05735 4.24752,-3.37812 7.11563,-3.37812c0.9016,0 1.76525,0.11673 2.5875,0.35938l4.77969,-6.36094c-0.29555,-1.0212 -0.46719,-2.08179 -0.46719,-3.19844c0,-6.35145 5.1497,-11.5 11.5,-11.5c6.3503,0 11.5,5.14855 11.5,11.5c0,6.35145 -5.1497,11.5 -11.5,11.5c-1.19715,0 -2.36555,-0.19981 -3.45,-0.53906l-6.14531,4.81562c0.24955,0.83605 0.39531,1.70574 0.39531,2.62344c0,5.0807 -4.1193,9.2 -9.2,9.2c-5.0807,0 -9.2,-4.1193 -9.2,-9.2c0,-0.57155 0.07964,-1.11032 0.17969,-1.65312l-7.07969,-3.30625l0,10.70938c0,5.75 4.6,10.35 10.35,10.35l32.2,0c5.75,0 10.35,-4.6 10.35,-10.35l0,-32.2c0,-5.75 -4.6,-10.35 -10.35,-10.35z M33.05,10.05c-3.79714,0 -6.9,3.10286 -6.9,6.9c0,3.79714 3.10286,6.9 6.9,6.9c3.79714,0 6.9,-3.10286 6.9,-6.9c0,-3.79714 -3.10286,-6.9 -6.9,-6.9z M33.05,12.35c2.55413,0 4.6,2.04587 4.6,4.6c0,2.55413 -2.04587,4.6 -4.6,4.6c-2.55413,0 -4.6,-2.04587 -4.6,-4.6c0,-2.55413 2.04587,-4.6 4.6,-4.6z M14.65,30.75c-0.9821,0 -1.87939,0.3312 -2.62344,0.8625l3.41406,1.58125c0.88205,0.322 1.50938,1.16495 1.50938,2.15625c0,0.8096 -0.40854,1.53008 -1.04219,1.94063c-0.04715,0.03105 -0.13024,0.04543 -0.17969,0.07188c-0.1081,0.0598 -0.20614,0.10235 -0.32344,0.14375c-0.069,0.02415 -0.14432,0.05347 -0.21563,0.07188c-0.1771,0.0437 -0.34701,0.07187 -0.53906,0.07187c-0.15525,0 -0.48616,0.0046 -0.82656,-0.14375c-0.10005,-0.0391 -0.19435,-0.092 -0.2875,-0.14375l-3.45,-1.61719c0.2093,2.346 2.16631,4.20469 4.56406,4.20469c2.5369,0 4.6,-2.0631 4.6,-4.6c0,-2.5369 -2.0631,-4.6 -4.6,-4.6z"/></g></g></g></g></svg>