<svg x="0" y="0" version="1.1" xmlns="http://www.w3.org/2000/svg" xmlns:xlink="http://www.w3.org/1999/xlink" viewBox="0 0 24 24" width="48" height="48" style="fill: rgb(0, 171, 241);"><g fill="none" stroke="none" stroke-width="1" stroke-linecap="butt" stroke-linejoin="miter" stroke-miterlimit="10" stroke-dasharray="" stroke-dashoffset="0" font-family="sans-serif" font-weight="normal" font-size="12" text-anchor="start" mix-blend-mode="normal"><g><g><path d="M0,24l0,-24l24,0l0,24z" fill="none"/><path d="M2.4,24c-1.32548,0 -2.4,-1.07452 -2.4,-2.4l0,-19.2c0,-1.32548 1.07452,-2.4 2.4,-2.4l19.2,0c1.32548,0 2.4,1.07452 2.4,2.4l0,19.2c0,1.32548 -1.07452,2.4 -2.4,2.4z" fill="#ffffff"/><g fill="#00abf1"><path d="M21.6,0l-19.2,0c-1.32,0 -2.4,1.08 -2.4,2.4l0,19.2c0,1.32 1.08,2.4 2.4,2.4l19.2,0c1.32,0 2.4,-1.08 2.4,-2.4l0,-19.2c0,-1.32 -1.08,-2.4 -2.4,-2.4z M18.72,8.16c0,0.12 0,0.24 0,0.48c0,4.56 -3.48,9.84 -9.84,9.84c-1.92,0 -3.72,-0.6 -5.28,-1.56c0.24,0 0.6,0 0.84,0c1.56,0 3.12,-0.6 4.32,-1.44c-1.56,0 -2.76,-1.08 -3.24,-2.4c0.24,0 0.48,0.12 0.6,0.12c0.36,0 0.6,0 0.96,-0.12c-1.56,-0.36 -2.76,-1.68 -2.76,-3.36l0,0c0.48,0.24 0.96,0.36 1.56,0.48c-0.96,-0.84 -1.56,-1.8 -1.56,-3c0,-0.6 0.12,-1.2 0.48,-1.68c1.68,2.04 4.2,3.48 7.08,3.6c0,-0.24 -0.12,-0.48 -0.12,-0.84c0,-1.92 1.56,-3.48 3.48,-3.48c0.96,0 1.92,0.36 2.52,1.08c0.84,-0.12 1.56,-0.48 2.16,-0.84c-0.24,0.84 -0.84,1.44 -1.56,1.92c0.72,-0.12 1.32,-0.24 2.04,-0.6c-0.48,0.72 -1.08,1.32 -1.68,1.8z"/></g></g></g></g></svg>