<svg x="0" y="0" version="1.1" xmlns="http://www.w3.org/2000/svg" xmlns:xlink="http://www.w3.org/1999/xlink" viewBox="0 0 24 24" width="48" height="48" style="fill: rgb(76, 117, 163);"><g fill="none" stroke="none" stroke-width="1" stroke-linecap="butt" stroke-linejoin="miter" stroke-miterlimit="10" stroke-dasharray="" stroke-dashoffset="0" font-family="sans-serif" font-weight="normal" font-size="12" text-anchor="start" mix-blend-mode="normal"><g><g><path d="M0,24l0,-24l24,0l0,24z" fill="none"/><path d="M2.4,24c-1.32548,0 -2.4,-1.07452 -2.4,-2.4l0,-19.2c0,-1.32548 1.07452,-2.4 2.4,-2.4l19.2,0c1.32548,0 2.4,1.07452 2.4,2.4l0,19.2c0,1.32548 -1.07452,2.4 -2.4,2.4z" fill="#ffffff"/><g fill="#4c75a3"><path d="M21.6,0l-19.2,0c-1.326,0 -2.4,1.074 -2.4,2.4l0,19.2c0,1.326 1.074,2.4 2.4,2.4l19.2,0c1.3248,0 2.4,-1.074 2.4,-2.4l0,-19.2c0,-1.326 -1.0752,-2.4 -2.4,-2.4z M19.6332,16.7604l-2.2428,0.0312c0,0 -0.4836,0.0948 -1.1172,-0.342c-0.8388,-0.576 -1.6296,-2.076 -2.2464,-1.8804c-0.6252,0.1992 -0.606,1.548 -0.606,1.548c0,0 0.0048,0.2376 -0.138,0.3924c-0.1548,0.1668 -0.4584,0.15 -0.4584,0.15l-1.0044,0c0,0 -2.2152,0.1836 -4.1676,-1.8516c-2.1276,-2.2188 -4.0068,-6.5988 -4.0068,-6.5988c0,0 -0.108,-0.276 0.0096,-0.4164c0.1332,-0.1572 0.4932,-0.1608 0.4932,-0.1608l2.4,-0.012c0,0 0.2256,0.0396 0.3888,0.1584c0.1332,0.0984 0.2088,0.2832 0.2088,0.2832c0,0 0.3876,0.9828 0.9024,1.8732c1.0032,1.7352 1.47,2.1156 1.8096,1.9296c0.4968,-0.2712 0.348,-2.4528 0.348,-2.4528c0,0 0.0096,-0.792 -0.2496,-1.1448c-0.2028,-0.2748 -0.5808,-0.3552 -0.7476,-0.3768c-0.1356,-0.018 0.0852,-0.3324 0.3732,-0.474c0.432,-0.2112 1.1952,-0.2232 2.0964,-0.2148c0.702,0.0072 0.9048,0.0504 1.1784,0.1176c0.828,0.2004 0.5472,0.9732 0.5472,2.8272c0,0.594 -0.1068,1.4292 0.3204,1.7052c0.1848,0.1188 0.6348,0.018 1.758,-1.8948c0.534,-0.9072 0.9336,-1.9728 0.9336,-1.9728c0,0 0.0876,-0.1896 0.2232,-0.2712c0.1392,-0.084 0.3264,-0.0576 0.3264,-0.0576l2.526,-0.0156c0,0 0.7584,-0.0912 0.882,0.2532c0.1296,0.36 -0.2832,1.2012 -1.3152,2.5788c-1.6944,2.262 -1.8828,2.0508 -0.4752,3.3588c1.344,1.2492 1.6224,1.8576 1.668,1.9332c0.5556,0.924 -0.618,0.9972 -0.618,0.9972z"/></g></g></g></g></svg>