<?xml version="1.0" encoding="iso-8859-1"?>
<!-- Generator: Adobe Illustrator 16.0.0, SVG Export Plug-In . SVG Version: 6.00 Build 0)  -->
<!DOCTYPE svg PUBLIC "-//W3C//DTD SVG 1.1//EN" "http://www.w3.org/Graphics/SVG/1.1/DTD/svg11.dtd">
<svg xmlns="http://www.w3.org/2000/svg" xmlns:xlink="http://www.w3.org/1999/xlink" version="1.1" id="Capa_1" x="0px" y="0px" width="512px" height="512px" viewBox="0 0 31.334 31.334" style="enable-background:new 0 0 31.334 31.334;" xml:space="preserve">
<g>
	<path d="M30.109,24.707c-0.167,0.021-0.335,0.047-0.503,0.048c-1.647,0.003-3.294-0.001-4.94,0.005   c-0.229,0.001-0.423-0.084-0.593-0.221c-0.344-0.281-0.698-0.558-1.015-0.87c-0.824-0.817-1.627-1.657-2.445-2.482   c-0.255-0.257-0.527-0.494-0.795-0.737c-0.139-0.131-0.313-0.159-0.493-0.156c-0.241,0.006-0.44,0.115-0.535,0.338   c-0.087,0.202-0.159,0.421-0.182,0.637c-0.04,0.391-0.042,0.784-0.05,1.175c-0.009,0.438-0.022,0.879-0.145,1.305   c-0.055,0.188-0.133,0.379-0.23,0.549c-0.17,0.292-0.438,0.451-0.779,0.458c-1.438,0.033-2.877,0.054-4.313-0.04   c-0.266-0.02-0.511-0.104-0.748-0.221c-1.34-0.658-2.517-1.532-3.54-2.622c-1.245-1.325-2.375-2.746-3.505-4.167   c-1.521-1.916-2.836-3.966-4.018-6.104c-0.432-0.779-0.849-1.569-1.159-2.408c-0.153-0.414-0.153-0.829-0.038-1.246   c0.033-0.124,0.092-0.245,0.16-0.354C0.34,7.434,0.491,7.345,0.684,7.341C0.752,7.34,0.823,7.338,0.891,7.338   c1.494,0,2.986,0.006,4.479-0.005C5.665,7.331,5.891,7.43,6.089,7.63C6.457,7.998,6.743,8.427,7,8.873   c0.28,0.486,0.56,0.975,0.807,1.479c0.543,1.109,1.209,2.143,1.914,3.151c0.344,0.491,0.716,0.963,1.073,1.444   c0.166,0.224,0.396,0.309,0.661,0.316c0.258,0.009,0.363-0.096,0.373-0.354c0.003-0.062,0.002-0.123,0.002-0.185   c0-1.686,0-3.37-0.002-5.055c0-0.131,0-0.263-0.013-0.393c-0.03-0.301-0.189-0.477-0.487-0.535   c-0.135-0.026-0.273-0.038-0.41-0.056c-0.42-0.055-0.594-0.233-0.638-0.655c-0.065-0.637,0.24-1.134,0.837-1.357   c0.257-0.096,0.523-0.117,0.795-0.116c1.331,0.002,2.662,0,3.993,0.001c0.27,0,0.54-0.014,0.808,0.01   c0.281,0.027,0.565,0.064,0.838,0.144c0.582,0.168,0.919,0.564,0.985,1.174c0.017,0.146,0.021,0.292,0.021,0.438   c0.002,1.023,0.002,2.046,0.002,3.069c0,1.085-0.001,2.17,0.002,3.255c0,0.106,0.009,0.217,0.038,0.318   c0.095,0.329,0.453,0.438,0.754,0.231c0.887-0.611,1.469-1.462,1.917-2.409c0.414-0.875,0.771-1.777,1.16-2.664   c0.311-0.703,0.63-1.402,0.955-2.099c0.079-0.173,0.196-0.33,0.305-0.488c0.099-0.142,0.229-0.204,0.412-0.204   c1.933,0.006,3.862,0.005,5.794,0.003c0.473,0,0.848,0.192,1.143,0.551c0.104,0.128,0.147,0.278,0.174,0.443   c0.115,0.761-0.146,1.424-0.51,2.063c-0.345,0.604-0.755,1.161-1.201,1.69c-0.924,1.094-1.83,2.201-2.622,3.396   c-0.204,0.307-0.378,0.634-0.564,0.951c-0.137,0.232-0.119,0.455,0.053,0.662c0.349,0.42,0.687,0.852,1.054,1.253   c0.872,0.956,1.766,1.889,2.643,2.84c0.281,0.306,0.535,0.634,0.796,0.958c0.086,0.107,0.15,0.232,0.234,0.341   C31.751,23.33,30.935,24.598,30.109,24.707z" fill="#FFFFFF"/>
</g>
<g>
</g>
<g>
</g>
<g>
</g>
<g>
</g>
<g>
</g>
<g>
</g>
<g>
</g>
<g>
</g>
<g>
</g>
<g>
</g>
<g>
</g>
<g>
</g>
<g>
</g>
<g>
</g>
<g>
</g>
</svg>
